# xmcd
#
# Track frame offsets: 
#        150
#        22384
#        42325
#        66945
#        85934
#        99723
#        114212
#        133052
#        150301
#        173457
#        193273
#        216169
#        237711
#
# Disc length: 3423 seconds
#
# Revision: 0
# Processed by: cddbd v1.5.1PL0 Copyright (c) Steve Scherf et al.
# Submitted via: ExactAudioCopy v0.95a5
#
DISCID=b70d5d0d
DTITLE=Van Morrison - Leeds
DYEAR=2005
DGENRE=Celtic
TTITLE0=Gypsy In My Soul
TTITLE1=Wonderful Remark
TTITLE2=Why Must I Always Explain?
TTITLE3=Magic Time
TTITLE4=Here Comes The Night
TTITLE5=They Sold Me Out
TTITLE6=Have I Told You Lately
TTITLE7=Jackie Wilson Said
TTITLE8=Stranded
TTITLE9=Whinin' Boy Moan
TTITLE10=Saint James Infirmary
TTITLE11=Cleaning Windows
TTITLE12=Stop Drinking
EXTD=
EXTT0=
EXTT1=
EXTT2=
EXTT3=
EXTT4=
EXTT5=
EXTT6=
EXTT7=
EXTT8=
EXTT9=
EXTT10=
EXTT11=
EXTT12=
PLAYORDER=
